<mxfile host="Electron" modified="2025-09-02T23:58:34.355Z" agent="Mozilla/5.0 (Windows NT 10.0; Win64; x64) AppleWebKit/537.36 (KHTML, like Gecko) draw.io/24.0.4 Chrome/120.0.6099.109 Electron/28.1.0 Safari/537.36" etag="BiCl2yA5-0H4oCcvkH29" version="24.0.4" type="device">
  <diagram name="Local Testing Workflow" id="local-workflow">
    <mxGraphModel dx="1674" dy="844" grid="1" gridSize="10" guides="1" tooltips="1" connect="1" arrows="1" fold="1" page="1" pageScale="1" pageWidth="1169" pageHeight="827" math="0" shadow="0">
      <root>
        <mxCell id="0" />
        <mxCell id="1" parent="0" />
        <mxCell id="title" value="🏠 ORCA Local Testing Workflow" style="text;html=1;strokeColor=none;fillColor=none;align=center;verticalAlign=middle;whiteSpace=wrap;rounded=0;fontSize=24;fontStyle=1;fontColor=#1f4e79;" parent="1" vertex="1">
          <mxGeometry x="300" y="20" width="569" height="40" as="geometry" />
        </mxCell>
        <mxCell id="UDMgQiUCmdPeQMAUYNV1-1" style="edgeStyle=orthogonalEdgeStyle;rounded=0;orthogonalLoop=1;jettySize=auto;html=1;exitX=0.5;exitY=1;exitDx=0;exitDy=0;entryX=1;entryY=0.5;entryDx=0;entryDy=0;" edge="1" parent="1" source="start" target="cmd1">
          <mxGeometry relative="1" as="geometry" />
        </mxCell>
        <mxCell id="UDMgQiUCmdPeQMAUYNV1-2" style="edgeStyle=orthogonalEdgeStyle;rounded=0;orthogonalLoop=1;jettySize=auto;html=1;exitX=0.5;exitY=1;exitDx=0;exitDy=0;entryX=0;entryY=0.5;entryDx=0;entryDy=0;" edge="1" parent="1" source="start" target="cmd2-1">
          <mxGeometry relative="1" as="geometry" />
        </mxCell>
        <mxCell id="start" value="🚀 Start" style="ellipse;whiteSpace=wrap;html=1;fillColor=#d5e8d4;strokeColor=#82b366;fontSize=14;fontStyle=1;" parent="1" vertex="1">
          <mxGeometry x="380" y="120" width="120" height="60" as="geometry" />
        </mxCell>
        <mxCell id="option1-title" value="Option 1: 🎯 One-Command Full Run" style="text;html=1;strokeColor=none;fillColor=none;align=center;verticalAlign=middle;whiteSpace=wrap;rounded=0;fontSize=16;fontStyle=1;fontColor=#d79b00;" parent="1" vertex="1">
          <mxGeometry x="80" y="180" width="300" height="30" as="geometry" />
        </mxCell>
        <mxCell id="cmd1" value="💻 CLI Command&lt;br&gt;&lt;br&gt;python -m tlpytools.orca&lt;br&gt;--action run_models&lt;br&gt;--databank db_test" style="rounded=1;whiteSpace=wrap;html=1;fillColor=#fff2cc;strokeColor=#d6b656;fontSize=12;align=center;verticalAlign=middle;fontFamily=Courier New;" parent="1" vertex="1">
          <mxGeometry x="80" y="220" width="300" height="80" as="geometry" />
        </mxCell>
        <mxCell id="auto1" value="🤖 Automatic Steps:" style="text;html=1;strokeColor=none;fillColor=none;align=left;verticalAlign=middle;whiteSpace=wrap;rounded=0;fontSize=14;fontStyle=1;fontColor=#666666;" parent="1" vertex="1">
          <mxGeometry x="80" y="320" width="150" height="20" as="geometry" />
        </mxCell>
        <mxCell id="step1-1" value="1️⃣ Initialize Databank" style="rounded=1;whiteSpace=wrap;html=1;fillColor=#e1d5e7;strokeColor=#9673a6;fontSize=11;" parent="1" vertex="1">
          <mxGeometry x="80" y="350" width="140" height="40" as="geometry" />
        </mxCell>
        <mxCell id="step1-2" value="2️⃣ Copy Input Data" style="rounded=1;whiteSpace=wrap;html=1;fillColor=#e1d5e7;strokeColor=#9673a6;fontSize=11;" parent="1" vertex="1">
          <mxGeometry x="240" y="350" width="140" height="40" as="geometry" />
        </mxCell>
        <mxCell id="step1-3" value="3️⃣ Run Model Steps" style="rounded=1;whiteSpace=wrap;html=1;fillColor=#e1d5e7;strokeColor=#9673a6;fontSize=11;" parent="1" vertex="1">
          <mxGeometry x="80" y="410" width="140" height="40" as="geometry" />
        </mxCell>
        <mxCell id="step1-4" value="4️⃣ Archive Outputs" style="rounded=1;whiteSpace=wrap;html=1;fillColor=#e1d5e7;strokeColor=#9673a6;fontSize=11;" parent="1" vertex="1">
          <mxGeometry x="240" y="410" width="140" height="40" as="geometry" />
        </mxCell>
        <mxCell id="option2-title" value="Option 2: 🔧 Step-by-Step Control" style="text;html=1;strokeColor=none;fillColor=none;align=center;verticalAlign=middle;whiteSpace=wrap;rounded=0;fontSize=16;fontStyle=1;fontColor=#d79b00;" parent="1" vertex="1">
          <mxGeometry x="500" y="180" width="300" height="30" as="geometry" />
        </mxCell>
        <mxCell id="UDMgQiUCmdPeQMAUYNV1-5" style="edgeStyle=orthogonalEdgeStyle;rounded=0;orthogonalLoop=1;jettySize=auto;html=1;exitX=0.5;exitY=1;exitDx=0;exitDy=0;entryX=0.5;entryY=0;entryDx=0;entryDy=0;" edge="1" parent="1" source="cmd2-1" target="cmd2-2">
          <mxGeometry relative="1" as="geometry" />
        </mxCell>
        <mxCell id="cmd2-1" value="💻 Step 1: Initialize&lt;br&gt;&lt;br&gt;python -m tlpytools.orca&lt;br&gt;--action initialize_databank&lt;br&gt;--databank db_test" style="rounded=1;whiteSpace=wrap;html=1;fillColor=#fff2cc;strokeColor=#d6b656;fontSize=11;align=center;verticalAlign=middle;fontFamily=Courier New;" parent="1" vertex="1">
          <mxGeometry x="500" y="220" width="280" height="80" as="geometry" />
        </mxCell>
        <mxCell id="cmd2-2" value="💻 Step 2: Run Models&lt;br&gt;&lt;br&gt;python -m tlpytools.orca&lt;br&gt;--action run_models&lt;br&gt;--databank db_test" style="rounded=1;whiteSpace=wrap;html=1;fillColor=#fff2cc;strokeColor=#d6b656;fontSize=11;align=center;verticalAlign=middle;fontFamily=Courier New;" parent="1" vertex="1">
          <mxGeometry x="500" y="320" width="280" height="90" as="geometry" />
        </mxCell>
        <mxCell id="execution-title" value="🔄 Model Execution Flow" style="text;html=1;strokeColor=none;fillColor=none;align=center;verticalAlign=middle;whiteSpace=wrap;rounded=0;fontSize=18;fontStyle=1;fontColor=#1f4e79;" parent="1" vertex="1">
          <mxGeometry x="330" y="480" width="250" height="30" as="geometry" />
        </mxCell>
        <mxCell id="seq1" value="👥 PopSim&lt;br&gt;Population Synthesis" style="rounded=1;whiteSpace=wrap;html=1;fillColor=#dae8fc;strokeColor=#6c8ebf;fontSize=12;align=center;verticalAlign=middle;" parent="1" vertex="1">
          <mxGeometry x="80" y="530" width="120" height="60" as="geometry" />
        </mxCell>
        <mxCell id="seq2" value="🎯 ActivitySim&lt;br&gt;Travel Demand" style="rounded=1;whiteSpace=wrap;html=1;fillColor=#dae8fc;strokeColor=#6c8ebf;fontSize=12;align=center;verticalAlign=middle;" parent="1" vertex="1">
          <mxGeometry x="240" y="530" width="120" height="60" as="geometry" />
        </mxCell>
        <mxCell id="seq3" value="🚛 CVM&lt;br&gt;Commercial Vehicles" style="rounded=1;whiteSpace=wrap;html=1;fillColor=#dae8fc;strokeColor=#6c8ebf;fontSize=12;align=center;verticalAlign=middle;" parent="1" vertex="1">
          <mxGeometry x="400" y="530" width="120" height="60" as="geometry" />
        </mxCell>
        <mxCell id="UDMgQiUCmdPeQMAUYNV1-3" style="edgeStyle=orthogonalEdgeStyle;rounded=0;orthogonalLoop=1;jettySize=auto;html=1;exitX=0.5;exitY=1;exitDx=0;exitDy=0;entryX=1;entryY=0.5;entryDx=0;entryDy=0;" edge="1" parent="1" source="seq4" target="iteration">
          <mxGeometry relative="1" as="geometry" />
        </mxCell>
        <mxCell id="seq4" value="🌐 Quetzal&lt;br&gt;Traffic Assignment" style="rounded=1;whiteSpace=wrap;html=1;fillColor=#dae8fc;strokeColor=#6c8ebf;fontSize=12;align=center;verticalAlign=middle;" parent="1" vertex="1">
          <mxGeometry x="560" y="530" width="120" height="60" as="geometry" />
        </mxCell>
        <mxCell id="UDMgQiUCmdPeQMAUYNV1-4" style="edgeStyle=orthogonalEdgeStyle;rounded=0;orthogonalLoop=1;jettySize=auto;html=1;exitX=0;exitY=0.5;exitDx=0;exitDy=0;entryX=0.5;entryY=1;entryDx=0;entryDy=0;" edge="1" parent="1" source="iteration" target="seq2">
          <mxGeometry relative="1" as="geometry" />
        </mxCell>
        <mxCell id="iteration" value="🔄 Iteration Loop&lt;br&gt;(Default: 4 iterations)" style="rounded=1;whiteSpace=wrap;html=1;fillColor=#f8cecc;strokeColor=#b85450;fontSize=12;align=center;verticalAlign=middle;" parent="1" vertex="1">
          <mxGeometry x="375" y="620" width="160" height="60" as="geometry" />
        </mxCell>
        <mxCell id="storage-title" value="💾 Local Data Storage" style="text;html=1;strokeColor=none;fillColor=none;align=center;verticalAlign=middle;whiteSpace=wrap;rounded=0;fontSize=16;fontStyle=1;fontColor=#1f4e79;" parent="1" vertex="1">
          <mxGeometry x="80" y="720" width="200" height="30" as="geometry" />
        </mxCell>
        <mxCell id="local-storage" value="📁 db_test/&lt;br&gt;├── 📄 orca_model_config.yaml&lt;br&gt;├── 📊 orca_model_state.json&lt;br&gt;├── 📝 orca_orchestrator.log&lt;br&gt;├── 📂 popsim/&lt;br&gt;├── 📂 activitysim/&lt;br&gt;├── 📂 cvm/&lt;br&gt;├── 📂 quetzal/&lt;br&gt;└── 📦 outputs/" style="rounded=1;whiteSpace=wrap;html=1;fillColor=#f5f5f5;strokeColor=#666666;fontSize=10;align=left;verticalAlign=top;fontFamily=Courier New;" parent="1" vertex="1">
          <mxGeometry x="80" y="760" width="300" height="120" as="geometry" />
        </mxCell>
        <mxCell id="benefits-title" value="✅ Local Testing Benefits" style="text;html=1;strokeColor=none;fillColor=none;align=center;verticalAlign=middle;whiteSpace=wrap;rounded=0;fontSize=16;fontStyle=1;fontColor=#1f4e79;" parent="1" vertex="1">
          <mxGeometry x="500" y="720" width="200" height="30" as="geometry" />
        </mxCell>
        <mxCell id="benefit1" value="⚡ Fast Development&lt;br&gt;No cloud overhead" style="rounded=1;whiteSpace=wrap;html=1;fillColor=#d5e8d4;strokeColor=#82b366;fontSize=11;align=center;verticalAlign=middle;" parent="1" vertex="1">
          <mxGeometry x="500" y="760" width="120" height="50" as="geometry" />
        </mxCell>
        <mxCell id="benefit2" value="🔍 Easy Debugging&lt;br&gt;Direct file access" style="rounded=1;whiteSpace=wrap;html=1;fillColor=#d5e8d4;strokeColor=#82b366;fontSize=11;align=center;verticalAlign=middle;" parent="1" vertex="1">
          <mxGeometry x="640" y="760" width="120" height="50" as="geometry" />
        </mxCell>
        <mxCell id="benefit3" value="💰 Cost Effective&lt;br&gt;No cloud resources" style="rounded=1;whiteSpace=wrap;html=1;fillColor=#d5e8d4;strokeColor=#82b366;fontSize=11;align=center;verticalAlign=middle;" parent="1" vertex="1">
          <mxGeometry x="780" y="760" width="120" height="50" as="geometry" />
        </mxCell>
        <mxCell id="benefit4" value="🔄 Stateful Resume&lt;br&gt;Continue from any step" style="rounded=1;whiteSpace=wrap;html=1;fillColor=#d5e8d4;strokeColor=#82b366;fontSize=11;align=center;verticalAlign=middle;" parent="1" vertex="1">
          <mxGeometry x="500" y="830" width="120" height="50" as="geometry" />
        </mxCell>
        <mxCell id="benefit5" value="⚙️ Easy Configuration&lt;br&gt;YAML file editing" style="rounded=1;whiteSpace=wrap;html=1;fillColor=#d5e8d4;strokeColor=#82b366;fontSize=11;align=center;verticalAlign=middle;" parent="1" vertex="1">
          <mxGeometry x="640" y="830" width="120" height="50" as="geometry" />
        </mxCell>
        <mxCell id="benefit6" value="📊 Performance Monitor&lt;br&gt;Runtime &amp; memory tracking" style="rounded=1;whiteSpace=wrap;html=1;fillColor=#d5e8d4;strokeColor=#82b366;fontSize=11;align=center;verticalAlign=middle;" parent="1" vertex="1">
          <mxGeometry x="780" y="830" width="120" height="50" as="geometry" />
        </mxCell>
        <mxCell id="arrow3" style="endArrow=classic;html=1;rounded=0;" parent="1" source="seq1" target="seq2" edge="1">
          <mxGeometry width="50" height="50" relative="1" as="geometry">
            <mxPoint x="280" y="580" as="sourcePoint" />
            <mxPoint x="330" y="530" as="targetPoint" />
          </mxGeometry>
        </mxCell>
        <mxCell id="arrow4" style="endArrow=classic;html=1;rounded=0;" parent="1" source="seq2" target="seq3" edge="1">
          <mxGeometry width="50" height="50" relative="1" as="geometry">
            <mxPoint x="280" y="580" as="sourcePoint" />
            <mxPoint x="330" y="530" as="targetPoint" />
          </mxGeometry>
        </mxCell>
        <mxCell id="arrow5" style="endArrow=classic;html=1;rounded=0;" parent="1" source="seq3" target="seq4" edge="1">
          <mxGeometry width="50" height="50" relative="1" as="geometry">
            <mxPoint x="280" y="580" as="sourcePoint" />
            <mxPoint x="330" y="530" as="targetPoint" />
          </mxGeometry>
        </mxCell>
        <mxCell id="iteration-label" value="Repeat until convergence" style="text;html=1;strokeColor=none;fillColor=none;align=center;verticalAlign=middle;whiteSpace=wrap;rounded=0;fontSize=10;fontStyle=2;fontColor=#666666;" parent="1" vertex="1">
          <mxGeometry x="400" y="600" width="120" height="20" as="geometry" />
        </mxCell>
      </root>
    </mxGraphModel>
  </diagram>
</mxfile>
